<svg width="58" height="58" viewBox="0 0 58 58" fill="none" xmlns="http://www.w3.org/2000/svg">
<path d="M32.6248 24.1667L42.2914 33.8334M42.2914 24.1667L32.6248 33.8334M47.3543 44.7084H22.4699C21.2094 44.7082 19.9988 44.2157 19.0963 43.3357L6.16709 30.7304C5.93617 30.5052 5.75266 30.2361 5.62736 29.939C5.50205 29.6418 5.4375 29.3225 5.4375 29C5.4375 28.6775 5.50205 28.3583 5.62736 28.0611C5.75266 27.7639 5.93617 27.4948 6.16709 27.2697L19.0963 14.6644C19.9988 13.7844 21.2094 13.2918 22.4699 13.2917H47.3543C49.6502 13.2917 52.7266 14.5991 52.7266 17.2188V40.7813C52.7266 43.4009 49.6502 44.7084 47.3543 44.7084Z" stroke="#3E4C5B" stroke-width="1.5" stroke-linecap="round" stroke-linejoin="round"/>
</svg>
