<svg width="77" height="77" viewBox="0 0 77 77" fill="none" xmlns="http://www.w3.org/2000/svg">
<path d="M50.9688 10C54.1596 10 57.2198 11.2676 59.4761 13.5239C61.7324 15.7802 63 18.8404 63 22.0312V55.7188C63 58.9096 61.7324 61.9698 59.4761 64.2261C57.2198 66.4824 54.1596 67.75 50.9688 67.75H22.0938C21.4556 67.75 20.8435 67.4965 20.3923 67.0452C19.941 66.594 19.6875 65.9819 19.6875 65.3438C19.6875 64.7056 19.941 64.0935 20.3923 63.6423C20.8435 63.191 21.4556 62.9375 22.0938 62.9375H50.9688C52.8833 62.9375 54.7194 62.177 56.0732 60.8232C57.427 59.4694 58.1875 57.6333 58.1875 55.7188V22.0312C58.1875 20.1167 57.427 18.2806 56.0732 16.9268C54.7194 15.573 52.8833 14.8125 50.9688 14.8125H22.0938C21.4556 14.8125 20.8435 14.559 20.3923 14.1077C19.941 13.6565 19.6875 13.0444 19.6875 12.4062C19.6875 11.7681 19.941 11.156 20.3923 10.7048C20.8435 10.2535 21.4556 10 22.0938 10H50.9688ZM15.5776 22.7339C15.8013 22.5102 16.0669 22.3327 16.3593 22.2116C16.6516 22.0905 16.9649 22.0282 17.2812 22.0282C17.5976 22.0282 17.9109 22.0905 18.2032 22.2116C18.4956 22.3327 18.7612 22.5102 18.9849 22.7339C19.2086 22.9576 19.3861 23.2232 19.5071 23.5155C19.6282 23.8078 19.6905 24.1211 19.6905 24.4375C19.6905 24.7539 19.6282 25.0672 19.5071 25.3595C19.3861 25.6518 19.2086 25.9174 18.9849 26.1411L8.65244 36.4688H41.3438C41.9819 36.4688 42.594 36.7223 43.0452 37.1735C43.4965 37.6248 43.75 38.2368 43.75 38.875C43.75 39.5132 43.4965 40.1252 43.0452 40.5765C42.594 41.0277 41.9819 41.2812 41.3438 41.2812H8.65244L18.9849 51.6089C19.2086 51.8326 19.3861 52.0982 19.5071 52.3905C19.6282 52.6828 19.6905 52.9961 19.6905 53.3125C19.6905 53.6289 19.6282 53.9422 19.5071 54.2345C19.3861 54.5268 19.2086 54.7924 18.9849 55.0161C18.7612 55.2398 18.4956 55.4173 18.2032 55.5384C17.9109 55.6595 17.5976 55.7218 17.2812 55.7218C16.9649 55.7218 16.6516 55.6595 16.3593 55.5384C16.0669 55.4173 15.8013 55.2398 15.5776 55.0161L1.14013 40.5786C0.916039 40.3551 0.738255 40.0896 0.616947 39.7972C0.49564 39.5049 0.433201 39.1915 0.433201 38.875C0.433201 38.5585 0.49564 38.2451 0.616947 37.9528C0.738255 37.6604 0.916039 37.3949 1.14013 37.1714L15.5776 22.7339Z" fill="#E5E5E5"/>
</svg>
