<svg width="333" height="333" viewBox="0 0 333 333" fill="none" xmlns="http://www.w3.org/2000/svg">
<path d="M166.5 291.375C139.425 291.375 116.471 281.737 97.6384 262.46C78.8054 243.183 69.3843 219.914 69.375 192.654V127.275C69.375 102.448 79.0505 81.9642 98.4015 65.823C117.753 49.6818 140.452 41.6158 166.5 41.625C191.29 41.625 213.675 49.469 233.655 65.157C253.635 80.845 263.625 101.551 263.625 127.275V276.973C263.625 281.043 262.242 284.461 259.476 287.226C256.711 289.992 253.288 291.375 249.209 291.375H166.5ZM166.5 277.5H210.525C202.219 271.719 195.651 264.277 190.823 255.175C185.994 246.082 183.58 236.092 183.58 225.205V211.427C180.731 211.843 177.928 212.153 175.172 212.357C172.415 212.56 169.525 212.662 166.5 212.662C149.757 212.662 133.894 209.101 118.909 201.978C103.924 194.856 92.0375 184.232 83.25 170.108V192.654C83.25 216.131 91.2975 236.143 107.392 252.692C123.487 269.231 143.19 277.5 166.5 277.5ZM197.441 225.191C197.441 239.612 202.561 251.933 212.801 262.154C223.041 272.375 235.357 277.491 249.75 277.5V170.371C243.738 179.945 236.24 187.891 227.259 194.208C218.277 200.535 208.342 205.262 197.455 208.389L197.441 225.191ZM166.5 198.801C188.645 198.801 208.056 192.118 224.733 178.752C241.411 165.385 249.75 148.227 249.75 127.275C249.75 118.469 248.141 110.186 244.922 102.425C241.703 94.6552 237.193 87.8195 231.393 81.918C215.345 82.917 201.673 88.911 190.379 99.9C179.085 110.898 173.438 124.385 173.438 140.36C173.438 142.33 172.776 143.976 171.453 145.299C170.131 146.631 168.479 147.297 166.5 147.297C164.521 147.297 162.869 146.631 161.547 145.299C160.224 143.967 159.562 142.321 159.562 140.36C159.562 124.385 153.874 110.88 142.496 99.8445C131.1 88.8185 117.378 82.9632 101.329 82.2787C95.7051 88.1802 91.2836 94.9559 88.0646 102.606C84.8456 110.255 83.2408 118.479 83.25 127.275C83.25 148.217 91.5889 165.372 108.267 178.738C124.944 192.104 144.355 198.787 166.5 198.787M114.191 134.49C112.249 132.548 111.278 130.143 111.278 127.275C111.278 124.408 112.249 122.003 114.191 120.06C116.134 118.118 118.539 117.147 121.406 117.147C124.274 117.147 126.679 118.118 128.621 120.06C130.564 122.003 131.535 124.408 131.535 127.275C131.535 130.143 130.564 132.548 128.621 134.49C126.679 136.433 124.274 137.404 121.406 137.404C118.539 137.404 116.134 136.433 114.191 134.49ZM204.379 134.49C202.436 132.548 201.465 130.143 201.465 127.275C201.465 124.408 202.436 122.003 204.379 120.06C206.321 118.118 208.726 117.147 211.594 117.147C214.461 117.147 216.866 118.118 218.809 120.06C220.751 122.003 221.722 124.408 221.722 127.275C221.722 130.143 220.751 132.548 218.809 134.49C216.866 136.433 214.461 137.404 211.594 137.404C208.726 137.404 206.321 136.433 204.379 134.49ZM115.537 70.8735C126.961 73.223 137.154 77.9405 146.118 85.026C155.081 92.13 161.875 100.723 166.5 110.806C171.125 100.723 177.864 92.1762 186.716 85.1647C195.568 78.1533 205.701 73.3895 217.116 70.8735C210.086 66.0172 202.284 62.2386 193.709 59.5376C185.116 56.8459 176.046 55.5 166.5 55.5C156.954 55.5 147.843 56.8459 139.166 59.5376C130.49 62.2294 122.613 66.008 115.537 70.8735ZM107.392 252.692C91.2975 236.143 83.25 216.112 83.25 192.654C83.25 216.131 91.2975 236.143 107.392 252.692ZM197.441 225.191C197.441 239.612 202.561 251.933 212.801 262.154C223.041 272.375 235.357 277.491 249.75 277.5C235.339 277.5 223.031 272.385 212.801 262.154C202.57 251.924 197.446 239.607 197.455 225.205" fill="#3E4C5B"/>
</svg>
