<svg width="49" height="33" viewBox="0 0 49 33" fill="none" xmlns="http://www.w3.org/2000/svg">
<path d="M27.9373 11.625L37.6039 21.2917M37.6039 11.625L27.9373 21.2917M42.6668 32.1667H17.7824C16.5219 32.1665 15.3113 31.674 14.4088 30.794L1.47959 18.1887C1.24867 17.9635 1.06516 17.6944 0.939855 17.3973C0.814553 17.1001 0.75 16.7808 0.75 16.4583C0.75 16.1358 0.814553 15.8166 0.939855 15.5194C1.06516 15.2222 1.24867 14.9531 1.47959 14.728L14.4088 2.12267C15.3113 1.24269 16.5219 0.750126 17.7824 0.75H42.6668C44.9627 0.75 48.0391 2.05742 48.0391 4.67708V28.2396C48.0391 30.8592 44.9627 32.1667 42.6668 32.1667Z" stroke="#3E4C5B" stroke-width="1.5" stroke-linecap="round" stroke-linejoin="round"/>
</svg>
